<svg width="41" height="41" viewBox="0 0 41 41" fill="none" xmlns="http://www.w3.org/2000/svg">
<path fill-rule="evenodd" clip-rule="evenodd" d="M13.4714 4.97854C13.748 4.60983 14.182 4.39282 14.6429 4.39282H26.3571C26.818 4.39282 27.252 4.60983 27.5286 4.97854L31.4821 10.25H36.6071C37.7721 10.25 38.8897 10.7128 39.7135 11.5366C40.5373 12.3604 41 13.4777 41 14.6428V32.2143C41 33.3792 40.5373 34.4968 39.7135 35.3206C38.8897 36.1444 37.7721 36.6071 36.6071 36.6071H4.39286C3.22778 36.6071 2.11046 36.1444 1.28664 35.3206C0.462817 34.4968 0 33.3792 0 32.2143V14.6428C0 13.4778 0.462817 12.3604 1.28664 11.5366C2.11046 10.7128 3.22778 10.25 4.39286 10.25H9.51786L13.4714 4.97854ZM27.7082 22.5831C27.7082 26.5641 24.4809 29.7912 20.5 29.7912C16.519 29.7912 13.2918 26.5641 13.2918 22.5831C13.2918 18.6022 16.519 15.375 20.5 15.375C24.4809 15.375 27.7082 18.6022 27.7082 22.5831Z" fill="black"/>
</svg>
