<svg width="16" height="16" viewBox="0 0 16 16" fill="none" xmlns="http://www.w3.org/2000/svg">
<mask id="mask0_16002_1987" style="mask-type:luminance" maskUnits="userSpaceOnUse" x="0" y="0" width="16" height="16">
<path d="M15.73 0.5H0.72998V15.5H15.73V0.5Z" fill="white"/>
</mask>
<g mask="url(#mask0_16002_1987)">
<path d="M4.05428 9.5646L3.53216 11.5138L1.62379 11.5542C1.05347 10.4964 0.72998 9.2861 0.72998 7.99995C0.72998 6.75627 1.03244 5.58346 1.56857 4.55078L3.26796 4.86226L4.01221 6.55105C3.85644 7.00517 3.77154 7.49267 3.77154 7.99995C3.7716 8.5505 3.87132 9.078 4.05428 9.5646Z" fill="#FBBB00"/>
<path d="M15.5986 6.59863C15.6847 7.05232 15.7296 7.52087 15.7296 7.99972C15.7296 8.5367 15.6732 9.0604 15.5656 9.5657C15.2005 11.2849 14.2465 12.7861 12.925 13.8485L10.7846 13.7389L10.4818 11.8482C11.3587 11.3339 12.044 10.5291 12.405 9.5657H8.39459V6.59863H12.4635H15.5986Z" fill="#518EF8"/>
<path d="M12.9251 13.8481C11.6398 14.8812 10.0075 15.4997 8.23018 15.4997C5.37401 15.4997 2.89078 13.9033 1.62402 11.554L4.05451 9.56451C4.68788 11.2548 6.3185 12.4581 8.23018 12.4581C9.05188 12.4581 9.82168 12.236 10.4822 11.8482L12.9251 13.8481Z" fill="#28B446"/>
<path d="M13.017 2.22663L10.5873 4.21577C9.90368 3.78844 9.09548 3.54159 8.22974 3.54159C6.27479 3.54159 4.61367 4.80009 4.01203 6.55107L1.56877 4.5508C2.81699 2.14422 5.33112 0.5 8.22974 0.5C10.0495 0.5 11.7181 1.14822 13.017 2.22663Z" fill="#F14336"/>
</g>
</svg>
