<svg width="126" height="28" viewBox="0 0 126 28" fill="none" xmlns="http://www.w3.org/2000/svg">
<mask id="mask0_18010_1142" style="mask-type:luminance" maskUnits="userSpaceOnUse" x="0" y="0" width="126" height="28">
<path d="M126 0H0V28H126V0Z" fill="white"/>
</mask>
<g mask="url(#mask0_18010_1142)">
<g filter="url(#filter0_i_18010_1142)">
<path d="M19.6724 28C20.0383 28 20.3893 27.8546 20.648 27.5959L27.5959 20.648C27.8546 20.3893 28 20.0383 28 19.6724V8.32759C28 7.96167 27.8546 7.61073 27.5959 7.35198L20.648 0.404111C20.3893 0.145363 20.0383 0 19.6724 0H8.32759C7.96167 0 7.61073 0.145363 7.35198 0.404111L0.404111 7.35198C0.145363 7.61073 -4.36215e-07 7.96167 0 8.32759L1.35241e-05 19.6724C1.39603e-05 20.0383 0.145377 20.3893 0.404124 20.648L7.352 27.5959C7.61075 27.8546 7.96168 28 8.32761 28H19.6724ZM12.8293 7.21951L20.1394 7.21952C20.5204 7.21952 20.8293 7.52838 20.8293 7.90938V15.2195C20.8293 18.2439 18.3415 20.7317 15.3171 20.7317H8.00695C7.62595 20.7317 7.31709 20.4228 7.31709 20.0419L7.31707 12.7317C7.31707 9.70732 9.75611 7.26829 12.8293 7.21951Z" fill="url(#paint0_linear_18010_1142)"/>
</g>
<g filter="url(#filter1_ddii_18010_1142)">
<path d="M20.1397 7.21974L12.8296 7.21973C9.75642 7.26851 7.31738 9.70754 7.31738 12.7319L7.3174 20.0421C7.3174 20.4231 7.62626 20.7319 8.00726 20.7319H15.3174C18.3418 20.7319 20.8296 18.2441 20.8296 15.2197V7.9096C20.8296 7.5286 20.5207 7.21974 20.1397 7.21974Z" fill="url(#paint1_linear_18010_1142)"/>
<path d="M20.1397 7.21974L12.8296 7.21973C9.75642 7.26851 7.31738 9.70754 7.31738 12.7319L7.3174 20.0421C7.3174 20.4231 7.62626 20.7319 8.00726 20.7319H15.3174C18.3418 20.7319 20.8296 18.2441 20.8296 15.2197V7.9096C20.8296 7.5286 20.5207 7.21974 20.1397 7.21974Z" fill="url(#paint2_radial_18010_1142)"/>
<path d="M7.47647 12.7319C7.47647 9.79717 9.84278 7.42689 12.8309 7.37881L20.1397 7.37882C20.4329 7.37882 20.6705 7.61645 20.6705 7.90959V15.2197C20.6705 18.1562 18.2539 20.5728 15.3174 20.5728H8.00726C7.71412 20.5728 7.47649 20.3352 7.47649 20.0421L7.47647 12.7319Z" stroke="url(#paint3_linear_18010_1142)" stroke-width="0.318182"/>
</g>
</g>
<defs>
<filter id="filter0_i_18010_1142" x="0" y="0" width="28" height="30.5454" filterUnits="userSpaceOnUse" color-interpolation-filters="sRGB">
<feFlood flood-opacity="0" result="BackgroundImageFix"/>
<feBlend mode="normal" in="SourceGraphic" in2="BackgroundImageFix" result="shape"/>
<feColorMatrix in="SourceAlpha" type="matrix" values="0 0 0 0 0 0 0 0 0 0 0 0 0 0 0 0 0 0 127 0" result="hardAlpha"/>
<feOffset dy="2.54545"/>
<feGaussianBlur stdDeviation="2.54545"/>
<feComposite in2="hardAlpha" operator="arithmetic" k2="-1" k3="1"/>
<feColorMatrix type="matrix" values="0 0 0 0 0.0588235 0 0 0 0 0.054902 0 0 0 0 0.0784314 0 0 0 0.04 0"/>
<feBlend mode="normal" in2="shape" result="effect1_innerShadow_18010_1142"/>
</filter>
<filter id="filter1_ddii_18010_1142" x="-1.69778" y="7.21969" width="31.5425" height="31.5425" filterUnits="userSpaceOnUse" color-interpolation-filters="sRGB">
<feFlood flood-opacity="0" result="BackgroundImageFix"/>
<feColorMatrix in="SourceAlpha" type="matrix" values="0 0 0 0 0 0 0 0 0 0 0 0 0 0 0 0 0 0 127 0" result="hardAlpha"/>
<feOffset/>
<feComposite in2="hardAlpha" operator="out"/>
<feColorMatrix type="matrix" values="0 0 0 0 0.113725 0 0 0 0 0 0 0 0 0 0.321569 0 0 0 0.13 0"/>
<feBlend mode="normal" in2="BackgroundImageFix" result="effect1_dropShadow_18010_1142"/>
<feColorMatrix in="SourceAlpha" type="matrix" values="0 0 0 0 0 0 0 0 0 0 0 0 0 0 0 0 0 0 127 0" result="hardAlpha"/>
<feOffset dy="9.01515"/>
<feGaussianBlur stdDeviation="4.50758"/>
<feComposite in2="hardAlpha" operator="out"/>
<feColorMatrix type="matrix" values="0 0 0 0 0.113725 0 0 0 0 0 0 0 0 0 0.321569 0 0 0 0.11 0"/>
<feBlend mode="normal" in2="effect1_dropShadow_18010_1142" result="effect2_dropShadow_18010_1142"/>
<feBlend mode="normal" in="SourceGraphic" in2="effect2_dropShadow_18010_1142" result="shape"/>
<feColorMatrix in="SourceAlpha" type="matrix" values="0 0 0 0 0 0 0 0 0 0 0 0 0 0 0 0 0 0 127 0" result="hardAlpha"/>
<feOffset dy="3.00505"/>
<feGaussianBlur stdDeviation="3.00505"/>
<feComposite in2="hardAlpha" operator="arithmetic" k2="-1" k3="1"/>
<feColorMatrix type="matrix" values="0 0 0 0 0.113725 0 0 0 0 0 0 0 0 0 0.321569 0 0 0 0.13 0"/>
<feBlend mode="normal" in2="shape" result="effect3_innerShadow_18010_1142"/>
<feColorMatrix in="SourceAlpha" type="matrix" values="0 0 0 0 0 0 0 0 0 0 0 0 0 0 0 0 0 0 127 0" result="hardAlpha"/>
<feOffset dy="2.54545"/>
<feGaussianBlur stdDeviation="2.54545"/>
<feComposite in2="hardAlpha" operator="arithmetic" k2="-1" k3="1"/>
<feColorMatrix type="matrix" values="0 0 0 0 0.0588235 0 0 0 0 0.054902 0 0 0 0 0.0784314 0 0 0 0.04 0"/>
<feBlend mode="normal" in2="effect3_innerShadow_18010_1142" result="effect4_innerShadow_18010_1142"/>
</filter>
<linearGradient id="paint0_linear_18010_1142" x1="28.7482" y1="28.7443" x2="1.27415" y2="1.90763" gradientUnits="userSpaceOnUse">
<stop stop-color="#7EFFF5"/>
<stop offset="0.361958" stop-color="#A981FF" stop-opacity="0.92"/>
<stop offset="0.738981" stop-color="#FF8BC1"/>
<stop offset="1" stop-color="#FFF385"/>
</linearGradient>
<linearGradient id="paint1_linear_18010_1142" x1="14.0736" y1="7.21764" x2="14.0736" y2="20.3204" gradientUnits="userSpaceOnUse">
<stop stop-color="white"/>
<stop offset="1" stop-color="white" stop-opacity="0.5"/>
</linearGradient>
<radialGradient id="paint2_radial_18010_1142" cx="0" cy="0" r="1" gradientUnits="userSpaceOnUse" gradientTransform="translate(2.79725 24.5101) rotate(-46.3881) scale(19.1153 22.121)">
<stop stop-color="#D0B3FF" stop-opacity="0.73"/>
<stop offset="1" stop-color="#D0B3FF" stop-opacity="0"/>
</radialGradient>
<linearGradient id="paint3_linear_18010_1142" x1="15.9094" y1="16.2275" x2="13.0458" y2="11.1366" gradientUnits="userSpaceOnUse">
<stop stop-color="white" stop-opacity="0"/>
<stop offset="1" stop-color="white"/>
</linearGradient>
</defs>
</svg>
