<svg width="18" height="21" viewBox="0 0 18 21" fill="none" xmlns="http://www.w3.org/2000/svg">
<path d="M11.6349 15.8818L8.8849 20.0068C8.8348 20.0819 8.7704 20.1465 8.6953 20.1968C8.6203 20.247 8.5361 20.282 8.4475 20.2997C8.2686 20.3355 8.0828 20.2988 7.93101 20.1976C7.77922 20.0964 7.67384 19.939 7.63806 19.7601C7.60229 19.5812 7.63904 19.3954 7.74023 19.2437L10.4902 15.1187C10.5914 14.9669 10.7488 14.8615 10.9277 14.8257C11.1066 14.7899 11.2923 14.8267 11.4441 14.9279C11.5959 15.0291 11.7013 15.1864 11.7371 15.3653C11.7729 15.5442 11.7361 15.73 11.6349 15.8818ZM17.9264 6.52404C17.8288 4.85526 17.0951 3.28742 15.8763 2.14334C14.6575 0.999269 13.0465 0.366059 11.3749 0.374099C9.7033 0.382139 8.0984 1.03082 6.89065 2.18656C5.68293 3.34231 4.96433 4.91714 4.88281 6.58678C4.87278 6.76495 4.79537 6.93264 4.66626 7.05584C4.53716 7.17904 4.36603 7.24853 4.18758 7.25021H4.13601C3.95453 7.234 3.78653 7.1476 3.66776 7.00942C3.54899 6.87123 3.48883 6.69216 3.50008 6.51029C3.52396 6.03228 3.59098 5.55741 3.70031 5.09146C3.71442 5.03296 3.71292 4.97178 3.69596 4.91403C3.679 4.85629 3.64718 4.80401 3.60368 4.76242C3.56018 4.72084 3.50652 4.6914 3.44807 4.67705C3.38962 4.66271 3.32844 4.66396 3.27062 4.68068C2.34 4.95563 1.52392 5.52554 0.945307 6.30456C0.366697 7.08358 0.0568967 8.02953 0.0625767 8.9999C0.0797567 11.4672 2.13539 13.4377 4.60351 13.4377H7.71531L5.67773 16.4937C5.57654 16.6454 5.53979 16.8312 5.57556 17.0101C5.61134 17.189 5.71672 17.3464 5.86851 17.4476C6.02031 17.5488 6.20609 17.5855 6.38498 17.5497C6.56387 17.5139 6.72122 17.4086 6.82242 17.2568L9.3679 13.4377H11.4063C12.2959 13.4367 13.176 13.2542 13.9926 12.9013C14.8093 12.5484 15.5453 12.0326 16.1556 11.3854C16.766 10.7382 17.2379 9.9732 17.5423 9.1373C17.8468 8.30142 17.9775 7.41219 17.9264 6.52404Z" fill="white"/>
</svg>
