<svg width="19" height="19" viewBox="0 0 19 19" fill="none" xmlns="http://www.w3.org/2000/svg">
<path d="M16.7892 2.31838C16.0901 1.60489 15.2558 1.03791 14.335 0.650585C13.4143 0.263255 12.4256 0.0633347 11.4267 0.0625247H11.3983C10.404 0.0599747 9.419 0.254695 8.50044 0.635435C7.58188 1.01616 6.74797 1.57533 6.04699 2.28057L0.771288 7.62502C0.515878 7.88333 0.373058 8.2322 0.374028 8.5955C0.374988 8.9587 0.519668 9.3068 0.776448 9.5638L3.23942 12.0267C3.36691 12.1549 3.51852 12.2564 3.68549 12.3256C3.85247 12.3948 4.03149 12.4302 4.21223 12.4298H4.21996C4.40201 12.4288 4.58204 12.3917 4.74963 12.3206C4.91721 12.2495 5.06901 12.1458 5.19621 12.0156L10.4298 6.65308C10.6854 6.40008 11.0295 6.25665 11.3891 6.25328C11.7487 6.24991 12.0954 6.38686 12.3557 6.63503C12.4843 6.75998 12.5865 6.90947 12.6564 7.07465C12.7262 7.23983 12.7622 7.41734 12.7621 7.59666C12.7639 7.78752 12.728 7.97684 12.6565 8.1538C12.5849 8.3308 12.4792 8.49191 12.3454 8.6279L6.99231 13.8022C6.86156 13.9292 6.75736 14.0808 6.68576 14.2484C6.61415 14.416 6.57658 14.5962 6.57522 14.7784C6.57386 14.9606 6.60874 15.1413 6.67784 15.31C6.74693 15.4786 6.84886 15.6318 6.9777 15.7607L9.4407 18.2237C9.6974 18.4789 10.0442 18.623 10.4062 18.6249C10.7682 18.6268 11.1165 18.4865 11.376 18.234L16.6869 13.0391C19.6475 10.0742 19.693 5.2669 16.7892 2.31838ZM4.21223 11.0531L1.75012 8.591L4.2784 6.02917L6.7259 8.4767L4.21223 11.0531ZM10.4118 17.25L7.94707 14.7879L10.5364 12.2846L12.9847 14.7321L10.4118 17.25Z" fill="white"/>
</svg>
