<svg width="20" height="16" viewBox="0 0 20 16" fill="none" xmlns="http://www.w3.org/2000/svg">
<path d="M19.3862 10.054V10.0454C19.3847 10.039 19.3827 10.0326 19.3802 10.0265C19.3232 9.8709 19.2569 9.7188 19.1817 9.571L15.6093 1.45165C15.5749 1.37345 15.5262 1.30234 15.4658 1.24197C15.2104 0.98654 14.9072 0.78392 14.5735 0.64568C14.2398 0.50744 13.8822 0.43629 13.521 0.43629C13.1598 0.43629 12.8022 0.50744 12.4685 0.64568C12.1348 0.78392 11.8316 0.98654 11.5762 1.24197C11.4478 1.37059 11.3755 1.54486 11.3751 1.72666V3.87509H8.62514V1.72666C8.62521 1.63634 8.60749 1.54691 8.57299 1.46345C8.53848 1.37999 8.48787 1.30414 8.42405 1.24025C8.16868 0.98482 7.86549 0.7822 7.53181 0.64396C7.19812 0.50572 6.84047 0.43457 6.47928 0.43457C6.1181 0.43457 5.76045 0.50572 5.42676 0.64396C5.09307 0.7822 4.78989 0.98482 4.53452 1.24025C4.47407 1.30062 4.4254 1.37173 4.391 1.44994L0.822016 9.571C0.746836 9.7188 0.680546 9.8709 0.623496 10.0265C0.621106 10.0324 0.619096 10.0384 0.617486 10.0445C0.617486 10.0445 0.617486 10.0514 0.617486 10.054C0.262556 11.0795 0.326056 12.2036 0.794226 13.1827C1.2624 14.1617 2.09752 14.9168 3.11861 15.2844C4.1397 15.6519 5.26449 15.6022 6.24922 15.1462C7.23395 14.6901 7.99928 13.8643 8.37936 12.8478C8.54671 12.3912 8.63111 11.9084 8.62858 11.4221V5.25009H11.3786V11.423C11.376 11.9093 11.4604 12.3921 11.6278 12.8487C12.0079 13.8652 12.7732 14.6909 13.7579 15.147C14.7427 15.6031 15.8675 15.6527 16.8886 15.2852C17.9096 14.9177 18.7448 14.1626 19.2129 13.1835C19.6811 12.2045 19.7446 11.0804 19.3897 10.0549L19.3862 10.054ZM7.08428 12.3743C6.83041 13.0517 6.31984 13.6018 5.66321 13.9054C5.00658 14.2089 4.25678 14.2416 3.57626 13.9961C2.89575 13.7507 2.33935 13.2471 2.02762 12.5943C1.71589 11.9415 1.67393 11.1921 1.91085 10.5086L2.06639 10.1537C2.35228 9.6103 2.81183 9.1781 3.37181 8.9262C3.93178 8.6742 4.55997 8.617 5.15628 8.7635C5.7526 8.91 6.28272 9.2518 6.66219 9.7346C7.04165 10.2174 7.24863 10.8132 7.25014 11.4273V11.4376C7.25009 11.7583 7.19396 12.0764 7.08428 12.3777V12.3743ZM16.4455 14.0217C16.0298 14.1739 15.5835 14.2235 15.1445 14.1662C14.7056 14.109 14.2869 13.9466 13.9242 13.6929C13.5614 13.4393 13.2652 13.1018 13.0609 12.7091C12.8565 12.3164 12.7499 11.8803 12.7501 11.4376V11.4281C12.7524 10.8144 12.9599 10.219 13.3397 9.7369C13.7194 9.2547 14.2495 8.9134 14.8457 8.7673C15.4418 8.6213 16.0696 8.6788 16.6293 8.9308C17.1889 9.1828 17.6481 9.6148 17.9339 10.158L18.0894 10.5129C18.334 11.1963 18.2984 11.9487 17.9904 12.606C17.6824 13.2633 17.1271 13.7722 16.4455 14.0217Z" fill="white"/>
</svg>
