<svg width="18" height="18" viewBox="0 0 18 18" fill="none" xmlns="http://www.w3.org/2000/svg">
<path d="M17.2509 3.78363C17.2462 3.36987 17.1581 2.96132 16.9919 2.58241C16.8256 2.20351 16.5846 1.86205 16.2833 1.57847C15.0801 0.437222 13.1276 0.480192 11.9331 1.67558L9.929 3.6891C9.5369 3.33172 9.0222 3.13918 8.4918 3.15151C7.9614 3.16383 7.45615 3.38007 7.08107 3.75527L6.65138 4.18496C6.52354 4.31266 6.42212 4.4643 6.35292 4.63123C6.28372 4.79815 6.24811 4.97707 6.24811 5.15777C6.24811 5.33847 6.28372 5.51739 6.35292 5.68431C6.42212 5.85123 6.52354 6.00288 6.65138 6.13058L6.82325 6.30761L2.44044 10.6904C2.01857 11.109 1.7132 11.6304 1.5545 12.2031C1.3958 12.7758 1.38926 13.38 1.53552 13.9561L0.848019 15.5382C0.752129 15.7556 0.724379 15.9969 0.768409 16.2304C0.812439 16.4639 0.926179 16.6786 1.09466 16.8461C1.28953 17.0423 1.53928 17.1748 1.81097 17.2262C2.08266 17.2776 2.36355 17.2455 2.61661 17.134L4.12224 16.4766C4.6879 16.6046 5.27679 16.587 5.8338 16.4254C6.3908 16.2638 6.89771 15.9636 7.30708 15.5528L11.6899 11.17L11.8669 11.347C12.1248 11.6047 12.4744 11.7494 12.8389 11.7494C13.2034 11.7494 13.553 11.6047 13.8108 11.347L14.2405 10.9173C14.6164 10.5417 14.8328 10.0356 14.8446 9.5044C14.8565 8.9732 14.6628 8.4579 14.3041 8.0659L16.3451 6.01457C16.6386 5.72286 16.87 5.37489 17.0257 4.99153C17.1813 4.60817 17.2579 4.19732 17.2509 3.78363ZM6.33685 14.586C6.07228 14.8511 5.74051 15.0392 5.37715 15.13C5.01379 15.2208 4.63255 15.211 4.27435 15.1016C4.11729 15.0532 3.94808 15.0626 3.79739 15.1282L2.24192 15.808L2.89935 14.2775C2.96756 14.1211 2.97522 13.945 2.92083 13.7833C2.79624 13.4193 2.77651 13.0275 2.86388 12.6528C2.95126 12.2781 3.14222 11.9355 3.41497 11.6641L7.79778 7.28129L10.7145 10.2032L6.33685 14.586Z" fill="white"/>
</svg>
