<svg width="28" height="28" viewBox="0 0 28 28" fill="none" xmlns="http://www.w3.org/2000/svg">
<path d="M21.4466 9.37414C20.89 9.62038 20.2996 9.78211 19.6952 9.85398C20.332 9.47278 20.8085 8.87309 21.036 8.16664C20.4376 8.52215 19.7827 8.77237 19.0996 8.90642C18.5231 8.29134 17.7173 7.94277 16.8742 7.94373C15.1904 7.94373 13.8248 9.30892 13.8248 10.9935C13.8248 11.2324 13.8522 11.4642 13.9035 11.6878C11.3681 11.5602 9.12193 10.3468 7.61745 8.50159C7.34657 8.96699 7.20421 9.49601 7.20493 10.0345C7.20493 11.0925 7.74346 12.0263 8.56151 12.573C8.07725 12.5576 7.60367 12.4269 7.18024 12.1914C7.17977 12.2042 7.17977 12.217 7.17977 12.2291C7.17977 13.7071 8.23098 14.94 9.62645 15.2199C9.36455 15.2908 9.0944 15.3266 8.82308 15.3264C8.62602 15.3264 8.43479 15.3082 8.24891 15.2726C8.63721 16.4838 9.76271 17.3657 11.0976 17.3899C10.0174 18.2377 8.68342 18.6977 7.31021 18.6957C7.06717 18.6959 6.82434 18.6816 6.58301 18.6528C7.97712 19.549 9.59986 20.0247 11.2572 20.0229C16.8668 20.0229 19.934 15.3762 19.934 11.3466C19.934 11.2147 19.9308 11.0824 19.9249 10.952C20.5219 10.5207 21.0372 9.98636 21.4466 9.37414Z" fill="#C8C6D3"/>
</svg>
