<svg width="28" height="28" viewBox="0 0 28 28" fill="none" xmlns="http://www.w3.org/2000/svg">
<path d="M14.7506 6.70898C15.5712 6.71034 15.987 6.71468 16.3464 6.72538L16.4879 6.73001C16.6514 6.73582 16.8127 6.74311 17.0071 6.75222C17.783 6.78807 18.3123 6.91082 18.7772 7.09129C19.2578 7.27661 19.6637 7.52696 20.069 7.93226C20.4737 8.33755 20.724 8.74467 20.91 9.2241C21.0898 9.68833 21.2126 10.2182 21.249 10.9942C21.2577 11.1886 21.2647 11.3499 21.2705 11.5134L21.2751 11.6549C21.2857 12.0142 21.2906 12.4301 21.2921 13.2507L21.2927 13.7945C21.2928 13.8609 21.2928 13.9294 21.2928 14.0002L21.2927 14.2059L21.2923 14.7496C21.2909 15.5702 21.2866 15.986 21.2759 16.3454L21.2712 16.4869C21.2655 16.6504 21.2582 16.8117 21.249 17.0061C21.2132 17.7821 21.0898 18.3114 20.91 18.7762C20.7246 19.2568 20.4737 19.6627 20.069 20.068C19.6637 20.4727 19.2559 20.7231 18.7772 20.909C18.3123 21.0888 17.783 21.2116 17.0071 21.2481C16.8127 21.2567 16.6514 21.2637 16.4879 21.2695L16.3464 21.2741C15.987 21.2847 15.5712 21.2896 14.7506 21.2912L14.2068 21.2917C14.1404 21.2918 14.0719 21.2918 14.0011 21.2918L13.7954 21.2917L13.2517 21.2913C12.4311 21.2899 12.0152 21.2856 11.6559 21.2749L11.5144 21.2702C11.3509 21.2645 11.1896 21.2572 10.9951 21.2481C10.2192 21.2122 9.69052 21.0888 9.22508 20.909C8.74504 20.7237 8.33853 20.4727 7.93323 20.068C7.52794 19.6627 7.2782 19.255 7.09226 18.7762C6.91179 18.3114 6.78966 17.7821 6.7532 17.0061C6.74454 16.8117 6.73747 16.6504 6.73175 16.4869L6.72716 16.3454C6.71649 15.986 6.71163 15.5702 6.71006 14.7496L6.70996 13.2507C6.71132 12.4301 6.71566 12.0142 6.72635 11.6549L6.73098 11.5134C6.73679 11.3499 6.74409 11.1886 6.7532 10.9942C6.78905 10.2176 6.91179 9.68894 7.09226 9.2241C7.27759 8.74406 7.52794 8.33755 7.93323 7.93226C8.33853 7.52696 8.74565 7.27722 9.22508 7.09129C9.68992 6.91082 10.2186 6.78868 10.9951 6.75222C11.1896 6.74356 11.3509 6.7365 11.5144 6.73077L11.6559 6.72619C12.0152 6.71552 12.4311 6.71065 13.2517 6.70908L14.7506 6.70898ZM14.0011 10.3543C11.9865 10.3543 10.3553 11.9873 10.3553 14.0002C10.3553 16.0148 11.9883 17.646 14.0011 17.646C16.0157 17.646 17.647 16.0129 17.647 14.0002C17.647 11.9855 16.0139 10.3543 14.0011 10.3543ZM14.0011 11.8126C15.2093 11.8126 16.1886 12.7916 16.1886 14.0002C16.1886 15.2083 15.2096 16.1877 14.0011 16.1877C12.793 16.1877 11.8136 15.2086 11.8136 14.0002C11.8136 12.792 12.7926 11.8126 14.0011 11.8126ZM17.8293 9.26056C17.3266 9.26056 16.9178 9.66882 16.9178 10.1714C16.9178 10.674 17.3261 11.0829 17.8293 11.0829C18.3318 11.0829 18.7407 10.6746 18.7407 10.1714C18.7407 9.66882 18.3311 9.25992 17.8293 9.26056Z" fill="#C8C6D3"/>
</svg>
