<svg width="28" height="28" viewBox="0 0 28 28" fill="none" xmlns="http://www.w3.org/2000/svg">
<path d="M14.1785 8.16626C14.5679 8.1684 15.5423 8.17782 16.5776 8.21929L16.9447 8.2353C17.987 8.28465 19.0285 8.36895 19.545 8.51298C20.234 8.70654 20.7756 9.27131 20.9586 9.98722C21.25 11.1241 21.2865 13.3429 21.291 13.8799L21.2917 13.9911V13.9989C21.2917 13.9989 21.2917 14.0016 21.2917 14.0068L21.291 14.1181C21.2865 14.655 21.25 16.8739 20.9586 18.0107C20.773 18.7293 20.2315 19.2941 19.545 19.485C19.0285 19.629 17.987 19.7133 16.9447 19.7626L16.5776 19.7786C15.5423 19.8201 14.5679 19.8295 14.1785 19.8317L14.0076 19.8323H14C14 19.8323 13.9974 19.8323 13.9924 19.8323L13.8216 19.8317C12.9974 19.8272 9.55107 19.7899 8.45498 19.485C7.76598 19.2914 7.22445 18.7266 7.04139 18.0107C6.74996 16.8739 6.71353 14.655 6.70898 14.1181V13.8799C6.71353 13.3429 6.74996 11.1241 7.04139 9.98722C7.22698 9.26866 7.76852 8.70389 8.45498 8.51298C9.55107 8.20799 12.9974 8.1708 13.8216 8.16626H14.1785ZM12.5417 11.4469V16.551L16.9167 13.9989L12.5417 11.4469Z" fill="#C8C6D3"/>
</svg>
